<?xml version="1.0" encoding="UTF-8"?>
<svg version="1.1" viewBox="0 0 1876 996" width="1280" height="1280" xmlns="http://www.w3.org/2000/svg">
<path transform="translate(0)" d="m0 0h1876v996h-1876z" fill="#FEFEFE"/>
<path transform="translate(907,439)" d="m0 0 18 1 11 3 12 5 12 7 12 11 9 13 7 14 3 10 1 8v17l-3 15-4 11-7 13-12 13-10 8-15 8-9 3-13 2h-17l-14-3-15-6-13-9-9-8-9-12-7-15-4-15-1-15 2-15 6-18 7-12 9-10 9-8 14-8 13-5 8-2z" fill="#0B0B0B"/>
<path transform="translate(898,40)" d="m0 0h26l18 4 12 5 11 6 14 12 6 8 7 12 4 14v19l-2 10-7 14-7 10-7 7-15 10-10 5-17 5-15 2-19-1-19-4h-6l-12 5-21 8h-7l-3-5-1-4 7-16 6-12-8-13-5-12-2-8v-18l3-13 5-10 9-12 7-7 14-10 16-7z" fill="#0B0B0B"/>
<path transform="translate(1043,335)" d="m0 0h126l11 3 10 9 4 6 3 11v68h-45v-34h-11v34h-68l-1-1 1-33h-12v34h-45v-66l3-12 6-9 8-6z" fill="#0B0B0B"/>
<path transform="translate(631,234)" d="m0 0h32l4 10 3 8 165 1-1 7-12 40-11 35-3 3h-110l-2-1 5 17h58l44 1v11l-2 1h-109l-11-33-9-30-13-41-4-17h-24z" fill="#0B0B0B"/>
<path transform="translate(143,693)" d="m0 0h32l16 3 16 6 13 10 9 12 5 12 3 15v19l-3 16-5 12-8 11-8 7-12 7-20 6-8 1h-30l-19-2-4-1v-131l1-1z" fill="#0B0B0B"/>
<path transform="translate(954,693)" d="m0 0h29l14 2 15 5 9 6 4 5 4 9 1 6v8l-3 9-5 8-5 4v2l9 4 7 10 3 8v17l-4 12-7 9-11 7-12 4-11 2h-36l-24-3v-131l13-2z" fill="#0B0B0B"/>
<path transform="translate(1618,693)" d="m0 0h29l17 3 12 5 8 6 6 7 4 8 2 9v10l-2 11-6 10-8 7-7 4 2 5 14 21 15 27v2l-4 1h-30l-9-16-11-18-9-14-16-1v48l-1 1h-30v-133l13-2z" fill="#0B0B0B"/>
<path transform="translate(1359,694)" d="m0 0 27 1 6 12 11 26 12 29 14 38 9 26 1 2-4 1h-29l-4-10-6-18-4-1h-48l-1 5-6 18-1 5-2 1h-23l-8-1 7-21 11-30 12-30 11-26 11-25z" fill="#0B0B0B"/>
<path transform="translate(1102,694)" d="m0 0 28 1 22 51 14 36 9 25 6 17v4l-2 1h-29l-2-2-8-26-4-1h-49l-3 12-5 15-6 2h-25l-1-3 16-45 14-36 13-30 9-20z" fill="#0B0B0B"/>
<path transform="translate(698,694)" d="m0 0 8 1 8 16 12 28 17 43 13 36 3 10-7 1h-25l-2-2-7-24-1-2-51-1-5 12-5 16-2 1h-30l-1-2 5-12 10-29 10-26 16-39 12-25 1-1z" fill="#0B0B0B"/>
<path transform="translate(1521,694)" d="m0 0 5 3 14 31 15 37 13 35 7 20 2 5v4h-30l-3-2-9-26-52-1-3 11-5 15-2 2-11 1-20-1 7-20 10-29 10-25 13-31 9-20 4-8z" fill="#0B0B0B"/>
<path transform="translate(371,692)" d="m0 0h28l17 4 11 4 1 4-8 22h-3l-8-4-9-2-9-1h-12l-10 3-8 5-4 5-6 13-1 6v19l4 15 5 8v2l14 7 4 1 14 1 8-1 1-46h29l1 1v66l-9 3-13 3-11 1h-20l-17-3-16-8-10-8-7-9-6-13-4-17v-23l4-17 8-16 12-12 11-7 11-4z" fill="#0B0B0B"/>
<path transform="translate(1193,695)" d="m0 0h101v19l-4 6-11 12-13 17-10 13-13 19-10 15-4 7 66-1 1 1v13l-1 12-5 1h-99l-1-1v-17l5-10 7-11 17-25 10-14 12-16 9-11 2-3-59-1z" fill="#0B0B0B"/>
<path transform="translate(1100,219)" d="m0 0h15l12 4 10 7 7 7 7 14 2 11-2 16-4 10-7 9-8 7-8 4-11 3h-12l-12-3-10-6-8-7-8-14-2-7v-17l3-10 5-9 8-9 12-7z" fill="#0B0B0B"/>
<path transform="translate(509,694)" d="m0 0h108l2 1-1 25-1 1h-39v107l-2 1h-29v-108h-40v-26z" fill="#0B0B0B"/>
<path transform="translate(777,694)" d="m0 0 30 1v107h58l1 1v17l-1 8-1 1h-87l-1-1v-133z" fill="#0B0B0B"/>
<path transform="translate(286,694)" d="m0 0h5l1 1v133l-1 1h-29l-1-1v-133z" fill="#0B0B0B"/>
<path transform="translate(459,694)" d="m0 0h28l1 1v133l-1 1h-29l-1-1v-133z" fill="#0B0B0B"/>
<path transform="translate(151,719)" d="m0 0h16l15 2 8 4 5 4 7 11 3 12v18l-3 11-6 10-5 5-7 4-10 3-11 1h-12l-1-1v-83z" fill="#FEFEFE"/>
<path transform="translate(909,467)" d="m0 0 7 1 1 1v10l11 8 4 5 2 5-1 5-2 1h-7l-3-2-3-7-8-2-7 4-2 3v7l2 5 9 3 11 4 7 6 4 9v8l-2 6-4 6-6 5-5 2v10l-3 3h-7l-2-5v-8l-10-6-4-5-2-6v-6h8l5 5 4 5 4 1 8-3 3-4 1-4-3-9-17-4-6-4-4-5-3-7v-12l5-8 7-6 3-2 1-5 1-7z" fill="#FEFEFE"/>
<path transform="translate(444,880)" d="m0 0 13 1 6 2 4 3 2 6-1 9-4 5 6 5 3 7v8l-4 6-8 4-5 1h-19l-1-10v-45l1-1z" fill="#0B0B0B"/>
<path transform="translate(753,265)" d="m0 0h22l1 1v59l-22 1-2-1v-59z" fill="#FEFEFE"/>
<path transform="translate(961,770)" d="m0 0h17l13 1 9 4 4 5 2 5-1 8-5 7-12 4-9 1h-17l-1-1-1-10v-22z" fill="#FEFEFE"/>
<path transform="translate(719,265)" d="m0 0h20l1 1v59l-21 1-2-1v-59z" fill="#FEFEFE"/>
<path transform="translate(674,265)" d="m0 0h31v60l-12 1-3-5-11-35-5-17z" fill="#FEFEFE"/>
<path transform="translate(788,265)" d="m0 0h31l-4 16-9 29-5 15-10 1-3-1-1-8v-29z" fill="#FEFEFE"/>
<path transform="translate(779,377)" d="m0 0h10l8 4 4 5 3 7v8l-4 8-7 6-4 2h-10l-8-4-5-6-2-4v-12l5-8 5-4z" fill="#0B0B0B"/>
<path transform="translate(717,377)" d="m0 0h10l8 4 6 9 1 3v8l-4 9-5 4-7 3h-8l-9-4-5-6-2-5v-10l4-8 6-5z" fill="#0B0B0B"/>
<path transform="translate(1627,719)" d="m0 0h13l12 2 6 3 5 6 1 3v10l-3 5-5 4-6 2-8 1h-17v-35z" fill="#FEFEFE"/>
<path transform="translate(777,878)" d="m0 0h2l10 24 6 15 5 12 2 5v4l-5-1-3-5-4-9h-24l-6 13-1 1h-5l1-5 18-45z" fill="#0B0B0B"/>
<path transform="translate(961,718)" d="m0 0h23l10 2 5 5 1 3v9l-5 6-8 3-12 1h-14l-1-5v-21z" fill="#FEFEFE"/>
<path transform="translate(1353,880)" d="m0 0h10l10 3 9 8 3 5v6l-6-3-3-5-7-5-8-2h-7l-8 3-5 4-4 9v11l5 10 9 6h13l10-5 6-9h-22l-2-4 1-1 30-1-1 9-6 9-8 6-7 3h-14l-10-5-7-7-4-9v-14l3-8 7-8 10-5z" fill="#0B0B0B"/>
<path transform="translate(849,878)" d="m0 0 3 3 7 11 10 14 9 13 1-37 2-2 4 1 1 13v46l-5-5-7-10-10-14-9-12-1 38-1 1h-5v-59z" fill="#0B0B0B"/>
<path transform="translate(1369,726)" d="m0 0 3 4 8 20 9 23v2h-37l3-11 9-24z" fill="#FEFEFE"/>
<path transform="translate(1508,727)" d="m0 0 3 1 8 22 9 24v1h-37l2-9 10-26z" fill="#FEFEFE"/>
<path transform="translate(1244,878)" d="m0 0 3 1 4 8 9 12 13 19 1 1 1-37 2-2 4 1v58l-5-4-9-14-14-19-2-5h-2l1 2v38l-3 1-3-1z" fill="#0B0B0B"/>
<path transform="translate(690,727)" d="m0 0 3 3 6 16 10 27v2h-37l4-13 7-18 6-16z" fill="#FEFEFE"/>
<path transform="translate(1113,727)" d="m0 0 3 3 11 29 6 16h-37l2-9 11-30z" fill="#FEFEFE"/>
<path transform="translate(1100,880)" d="m0 0h5v25h25v-24l5-1 1 1 1 26v29l-1 1h-6v-25h-25v25h-6v-47z" fill="#0B0B0B"/>
<path transform="translate(556,879)" d="m0 0 4 2v42l-4 8-6 5-7 2h-7l-10-3-6-7-2-7v-37l1-4 5 1 1 38 3 8 5 3h12l5-3 2-3 1-5 1-39z" fill="#0B0B0B"/>
<path transform="translate(606,879)" d="m0 0 5 1 6 7 10 15 4-1 7-11 5-7 7-4 2 1-2 5-11 16-6 8-1 5v14l-1 8-5 1-1-1-1-26-4-6-12-17-3-4z" fill="#0B0B0B"/>
<path transform="translate(932,879)" d="m0 0 5 1 5 5 7 10 4 7 4-1 11-16 6-5h5l-2 4-7 11-10 13-1 3-1 26-3 1-3-1-1-25-5-9-13-18z" fill="#0B0B0B"/>
<path transform="translate(1021,880)" d="m0 0h31l2 1-2 5-11 1-1 49-7 1v-50h-12l-2-5z" fill="#0B0B0B"/>
<path transform="translate(443,910)" d="m0 0h16l6 4 2 4-1 7-6 5-4 1h-13z" fill="#FEFEFE"/>
<path transform="translate(1188,880)" d="m0 0h5v57l-6 1v-57z" fill="#0B0B0B"/>
<path transform="translate(444,886)" d="m0 0h8l9 3 2 3v6l-4 4-11 2h-5v-17z" fill="#FEFEFE"/>
<path transform="translate(777,892)" d="m0 0h2l9 23v1h-19l1-6z" fill="#FEFEFE"/>
<path transform="translate(712,233)" d="m0 0 5 2 6 2-3 9-1 1h-7l-5-3 3-9z" fill="#0B0B0B"/>
<path transform="translate(1e3 126)" d="m0 0 5 1 6 5-4 8-5 1-6-5 1-5z" fill="#0B0B0B"/>
<path transform="translate(1043,486)" d="m0 0 4 1 5 6-2 4-7 4h-2l-2-4-3-2 1-4z" fill="#0B0B0B"/>
<path transform="translate(756,466)" d="m0 0 5 2 3 4-1 4-5 5-5-2-5-4 1-4 6-4z" fill="#0B0B0B"/>
<path transform="translate(1076,185)" d="m0 0 5 1 5 6-2 4-5 4-4-2-4-4v-5z" fill="#0B0B0B"/>
<path transform="translate(945,100)" d="m0 0h13l-1 11h-12l-1-1v-8z" fill="#FEFEFE"/>
<path transform="translate(809,509)" d="m0 0h5l6 4-1 4-3 6-5-1-6-4 1-5z" fill="#0B0B0B"/>
<path transform="translate(865,100)" d="m0 0h12l1 1v9l-1 1-9 1-3-1z" fill="#FEFEFE"/>
<path transform="translate(772,482)" d="m0 0 4 1 2 4 3 1-1 4-5 6-4-2-5-6 2-4z" fill="#0B0B0B"/>
<path transform="translate(1090,434)" d="m0 0 5 2 3 4-1 4-3 5-6-1-4-3v-5l4-5z" fill="#0B0B0B"/>
<path transform="translate(740,449)" d="m0 0 5 1 4 6-6 7h-4l-6-8 2-3z" fill="#0B0B0B"/>
<path transform="translate(727,430)" d="m0 0 5 1 3 4-1 5-5 4-4-1-4-6 1-5z" fill="#0B0B0B"/>
<path transform="translate(919,100)" d="m0 0h11l1 1v9l-1 1h-12v-10z" fill="#FEFEFE"/>
<path transform="translate(789,496)" d="m0 0 5 1 6 5-2 4-3 5-5-2-6-3z" fill="#0B0B0B"/>
<path transform="translate(1076,453)" d="m0 0 5 2 3 3v5l-5 5-4-1-5-5 1-4z" fill="#0B0B0B"/>
<path transform="translate(736,192)" d="m0 0 4 2 5 4-2 5-3 5-4-1v-2l-6-2v-3l4-5z" fill="#0B0B0B"/>
<path transform="translate(769,158)" d="m0 0 4 2 4 6-7 7-4-1-5-5 1-4z" fill="#0B0B0B"/>
<path transform="translate(786,144)" d="m0 0 5 1 3 5-1 5-6 4-3-1-4-6v-4z" fill="#0B0B0B"/>
<path transform="translate(1060,470)" d="m0 0 4 1 5 6-2 4-4 4-4-1-5-5 1-4z" fill="#0B0B0B"/>
<path transform="translate(1043,151)" d="m0 0 4 1 6 6-2 5-4 3-4-1-5-4 1-4z" fill="#0B0B0B"/>
<path transform="translate(750,175)" d="m0 0 5 1 5 5v3l-8 6-8-7 2-4z" fill="#0B0B0B"/>
<path transform="translate(1025,138)" d="m0 0 6 2 3 3-2 5-3 4h-5l-5-5 2-5z" fill="#0B0B0B"/>
<path transform="translate(808,131)" d="m0 0 4 2v5l2 1-1 4-9 4-5-10z" fill="#0B0B0B"/>
<path transform="translate(722,213)" d="m0 0 5 1 6 4-2 5-3 4-4-1-7-4z" fill="#0B0B0B"/>
<path transform="translate(1061,167)" d="m0 0 5 2 4 5-2 4-5 4-4-2-4-4 1-4z" fill="#0B0B0B"/>
<path transform="translate(892,100)" d="m0 0h12v10l-1 1h-10l-1-1z" fill="#FEFEFE"/>
<path transform="translate(1024,499)" d="m0 0 4 1 4 6-1 5-3 2-4-1-5-5 2-5z" fill="#0B0B0B"/>
<path transform="translate(1090,204)" d="m0 0h5l4 5v2l-8 6h-3l-4-6 2-4z" fill="#0B0B0B"/>
</svg>
